<svg width="41" height="41" viewBox="0 0 41 41" fill="none" xmlns="http://www.w3.org/2000/svg">
<path d="M28.9042 14.0309L30.5 12.4882V12.1505H24.9717L21.0317 22.0604L16.5492 12.1505H10.7525V12.4882L12.6167 14.756C12.7983 14.9236 12.8933 15.1686 12.8692 15.4154V24.3274C12.9267 24.6482 12.8233 24.9783 12.6 25.2116L10.5 27.7834V28.1168H16.4542V27.7791L14.3542 25.2116C14.1267 24.9775 14.0192 24.6532 14.065 24.3274V16.6187L19.2917 28.121H19.8992L24.3933 16.6187V25.7817C24.3933 26.0234 24.3933 26.073 24.2367 26.2314L22.62 27.812V28.1505H30.4633V27.8128L28.905 26.2709C28.7683 26.1665 28.6975 25.9914 28.7267 25.8212V14.4806C28.6975 14.3097 28.7675 14.1345 28.9042 14.0309Z" fill="white"/>
</svg>
