<svg id="visual" viewBox="0 0 960 200" width="960" height="200" xmlns="http://www.w3.org/2000/svg" xmlns:xlink="http://www.w3.org/1999/xlink" version="1.1"><rect x="0" y="0" width="960" height="200" fill="#fff"></rect><path d="M0 114L11.5 115.7C23 117.3 46 120.7 68.8 123.5C91.7 126.3 114.3 128.7 137.2 128.3C160 128 183 125 205.8 125.7C228.7 126.3 251.3 130.7 274.2 130.3C297 130 320 125 342.8 116.2C365.7 107.3 388.3 94.7 411.2 94.2C434 93.7 457 105.3 480 111C503 116.7 526 116.3 548.8 113.8C571.7 111.3 594.3 106.7 617.2 110C640 113.3 663 124.7 685.8 129.3C708.7 134 731.3 132 754.2 122.7C777 113.3 800 96.7 822.8 97.2C845.7 97.7 868.3 115.3 891.2 124.8C914 134.3 937 135.7 948.5 136.3L960 137L960 0L948.5 0C937 0 914 0 891.2 0C868.3 0 845.7 0 822.8 0C800 0 777 0 754.2 0C731.3 0 708.7 0 685.8 0C663 0 640 0 617.2 0C594.3 0 571.7 0 548.8 0C526 0 503 0 480 0C457 0 434 0 411.2 0C388.3 0 365.7 0 342.8 0C320 0 297 0 274.2 0C251.3 0 228.7 0 205.8 0C183 0 160 0 137.2 0C114.3 0 91.7 0 68.8 0C46 0 23 0 11.5 0L0 0Z" fill="#871400"></path><path d="M0 98L11.5 102.2C23 106.3 46 114.7 68.8 118.8C91.7 123 114.3 123 137.2 118.8C160 114.7 183 106.3 205.8 103.3C228.7 100.3 251.3 102.7 274.2 102.7C297 102.7 320 100.3 342.8 96.8C365.7 93.3 388.3 88.7 411.2 87.8C434 87 457 90 480 89.8C503 89.7 526 86.3 548.8 82.5C571.7 78.7 594.3 74.3 617.2 79.2C640 84 663 98 685.8 98C708.7 98 731.3 84 754.2 86.3C777 88.7 800 107.3 822.8 116.5C845.7 125.7 868.3 125.3 891.2 118.2C914 111 937 97 948.5 90L960 83L960 0L948.5 0C937 0 914 0 891.2 0C868.3 0 845.7 0 822.8 0C800 0 777 0 754.2 0C731.3 0 708.7 0 685.8 0C663 0 640 0 617.2 0C594.3 0 571.7 0 548.8 0C526 0 503 0 480 0C457 0 434 0 411.2 0C388.3 0 365.7 0 342.8 0C320 0 297 0 274.2 0C251.3 0 228.7 0 205.8 0C183 0 160 0 137.2 0C114.3 0 91.7 0 68.8 0C46 0 23 0 11.5 0L0 0Z" fill="#972303"></path><path d="M0 70L11.5 71.7C23 73.3 46 76.7 68.8 80.2C91.7 83.7 114.3 87.3 137.2 83.8C160 80.3 183 69.7 205.8 69.2C228.7 68.7 251.3 78.3 274.2 83.5C297 88.7 320 89.3 342.8 92.5C365.7 95.7 388.3 101.3 411.2 100.7C434 100 457 93 480 90C503 87 526 88 548.8 84.2C571.7 80.3 594.3 71.7 617.2 67.8C640 64 663 65 685.8 64C708.7 63 731.3 60 754.2 67C777 74 800 91 822.8 95.5C845.7 100 868.3 92 891.2 83.5C914 75 937 66 948.5 61.5L960 57L960 0L948.5 0C937 0 914 0 891.2 0C868.3 0 845.7 0 822.8 0C800 0 777 0 754.2 0C731.3 0 708.7 0 685.8 0C663 0 640 0 617.2 0C594.3 0 571.7 0 548.8 0C526 0 503 0 480 0C457 0 434 0 411.2 0C388.3 0 365.7 0 342.8 0C320 0 297 0 274.2 0C251.3 0 228.7 0 205.8 0C183 0 160 0 137.2 0C114.3 0 91.7 0 68.8 0C46 0 23 0 11.5 0L0 0Z" fill="#a63005"></path><path d="M0 48L11.5 48.7C23 49.3 46 50.7 68.8 57C91.7 63.3 114.3 74.7 137.2 78.7C160 82.7 183 79.3 205.8 77.8C228.7 76.3 251.3 76.7 274.2 78.5C297 80.3 320 83.7 342.8 82.5C365.7 81.3 388.3 75.7 411.2 72.3C434 69 457 68 480 65.7C503 63.3 526 59.7 548.8 58C571.7 56.3 594.3 56.7 617.2 55C640 53.3 663 49.7 685.8 53.7C708.7 57.7 731.3 69.3 754.2 71.3C777 73.3 800 65.7 822.8 61.7C845.7 57.7 868.3 57.3 891.2 60.2C914 63 937 69 948.5 72L960 75L960 0L948.5 0C937 0 914 0 891.2 0C868.3 0 845.7 0 822.8 0C800 0 777 0 754.2 0C731.3 0 708.7 0 685.8 0C663 0 640 0 617.2 0C594.3 0 571.7 0 548.8 0C526 0 503 0 480 0C457 0 434 0 411.2 0C388.3 0 365.7 0 342.8 0C320 0 297 0 274.2 0C251.3 0 228.7 0 205.8 0C183 0 160 0 137.2 0C114.3 0 91.7 0 68.8 0C46 0 23 0 11.5 0L0 0Z" fill="#b63d06"></path><path d="M0 38L11.5 38.5C23 39 46 40 68.8 40.3C91.7 40.7 114.3 40.3 137.2 44.2C160 48 183 56 205.8 59.2C228.7 62.3 251.3 60.7 274.2 60.3C297 60 320 61 342.8 63.3C365.7 65.7 388.3 69.3 411.2 70.2C434 71 457 69 480 68.3C503 67.7 526 68.3 548.8 70C571.7 71.7 594.3 74.3 617.2 71.3C640 68.3 663 59.7 685.8 57.7C708.7 55.7 731.3 60.3 754.2 62.8C777 65.3 800 65.7 822.8 62.7C845.7 59.7 868.3 53.3 891.2 48.2C914 43 937 39 948.5 37L960 35L960 0L948.5 0C937 0 914 0 891.2 0C868.3 0 845.7 0 822.8 0C800 0 777 0 754.2 0C731.3 0 708.7 0 685.8 0C663 0 640 0 617.2 0C594.3 0 571.7 0 548.8 0C526 0 503 0 480 0C457 0 434 0 411.2 0C388.3 0 365.7 0 342.8 0C320 0 297 0 274.2 0C251.3 0 228.7 0 205.8 0C183 0 160 0 137.2 0C114.3 0 91.7 0 68.8 0C46 0 23 0 11.5 0L0 0Z" fill="#c64b08"></path><path d="M0 31L11.5 31.7C23 32.3 46 33.7 68.8 34C91.7 34.3 114.3 33.7 137.2 37.3C160 41 183 49 205.8 49.7C228.7 50.3 251.3 43.7 274.2 44C297 44.3 320 51.7 342.8 50.7C365.7 49.7 388.3 40.3 411.2 37C434 33.7 457 36.3 480 41.3C503 46.3 526 53.7 548.8 55.8C571.7 58 594.3 55 617.2 50.8C640 46.7 663 41.3 685.8 41.2C708.7 41 731.3 46 754.2 48.8C777 51.7 800 52.3 822.8 50.8C845.7 49.3 868.3 45.7 891.2 46C914 46.3 937 50.7 948.5 52.8L960 55L960 0L948.5 0C937 0 914 0 891.2 0C868.3 0 845.7 0 822.8 0C800 0 777 0 754.2 0C731.3 0 708.7 0 685.8 0C663 0 640 0 617.2 0C594.3 0 571.7 0 548.8 0C526 0 503 0 480 0C457 0 434 0 411.2 0C388.3 0 365.7 0 342.8 0C320 0 297 0 274.2 0C251.3 0 228.7 0 205.8 0C183 0 160 0 137.2 0C114.3 0 91.7 0 68.8 0C46 0 23 0 11.5 0L0 0Z" fill="#d65809"></path><path d="M0 38L11.5 34.3C23 30.7 46 23.3 68.8 24C91.7 24.7 114.3 33.3 137.2 37.7C160 42 183 42 205.8 38.8C228.7 35.7 251.3 29.3 274.2 27.5C297 25.7 320 28.3 342.8 28C365.7 27.7 388.3 24.3 411.2 25.3C434 26.3 457 31.7 480 32.2C503 32.7 526 28.3 548.8 25.5C571.7 22.7 594.3 21.3 617.2 20.7C640 20 663 20 685.8 21.2C708.7 22.3 731.3 24.7 754.2 24C777 23.3 800 19.7 822.8 20.3C845.7 21 868.3 26 891.2 27C914 28 937 25 948.5 23.5L960 22L960 0L948.5 0C937 0 914 0 891.2 0C868.3 0 845.7 0 822.8 0C800 0 777 0 754.2 0C731.3 0 708.7 0 685.8 0C663 0 640 0 617.2 0C594.3 0 571.7 0 548.8 0C526 0 503 0 480 0C457 0 434 0 411.2 0C388.3 0 365.7 0 342.8 0C320 0 297 0 274.2 0C251.3 0 228.7 0 205.8 0C183 0 160 0 137.2 0C114.3 0 91.7 0 68.8 0C46 0 23 0 11.5 0L0 0Z" fill="#e5650a"></path><path d="M0 6L11.5 9.7C23 13.3 46 20.7 68.8 21.8C91.7 23 114.3 18 137.2 16.8C160 15.7 183 18.3 205.8 17.8C228.7 17.3 251.3 13.7 274.2 11.8C297 10 320 10 342.8 11.5C365.7 13 388.3 16 411.2 18.8C434 21.7 457 24.3 480 24.5C503 24.7 526 22.3 548.8 22.2C571.7 22 594.3 24 617.2 21.7C640 19.3 663 12.7 685.8 11.7C708.7 10.7 731.3 15.3 754.2 16.7C777 18 800 16 822.8 13.8C845.7 11.7 868.3 9.3 891.2 9.8C914 10.3 937 13.7 948.5 15.3L960 17L960 0L948.5 0C937 0 914 0 891.2 0C868.3 0 845.7 0 822.8 0C800 0 777 0 754.2 0C731.3 0 708.7 0 685.8 0C663 0 640 0 617.2 0C594.3 0 571.7 0 548.8 0C526 0 503 0 480 0C457 0 434 0 411.2 0C388.3 0 365.7 0 342.8 0C320 0 297 0 274.2 0C251.3 0 228.7 0 205.8 0C183 0 160 0 137.2 0C114.3 0 91.7 0 68.8 0C46 0 23 0 11.5 0L0 0Z" fill="#f5730a"></path></svg>