<svg xmlns="http://www.w3.org/2000/svg" xmlns:xlink="http://www.w3.org/1999/xlink" id="visual" width="960" height="200" version="1.1" viewBox="0 0 960 200"><rect width="960" height="200" x="0" y="0" fill="#1c1a19"/><path fill="#f5730a" d="M0 21L11.5 22.7C23 24.3 46 27.7 68.8 33.8C91.7 40 114.3 49 137.2 49.3C160 49.7 183 41.3 205.8 41.5C228.7 41.7 251.3 50.3 274.2 59.8C297 69.3 320 79.7 342.8 73.8C365.7 68 388.3 46 411.2 38.3C434 30.7 457 37.3 480 38.8C503 40.3 526 36.7 548.8 46.2C571.7 55.7 594.3 78.3 617.2 86.3C640 94.3 663 87.7 685.8 80C708.7 72.3 731.3 63.7 754.2 66.7C777 69.7 800 84.3 822.8 85.5C845.7 86.7 868.3 74.3 891.2 64.8C914 55.3 937 48.7 948.5 45.3L960 42L960 201L948.5 201C937 201 914 201 891.2 201C868.3 201 845.7 201 822.8 201C800 201 777 201 754.2 201C731.3 201 708.7 201 685.8 201C663 201 640 201 617.2 201C594.3 201 571.7 201 548.8 201C526 201 503 201 480 201C457 201 434 201 411.2 201C388.3 201 365.7 201 342.8 201C320 201 297 201 274.2 201C251.3 201 228.7 201 205.8 201C183 201 160 201 137.2 201C114.3 201 91.7 201 68.8 201C46 201 23 201 11.5 201L0 201Z"/><path fill="#e5650a" d="M0 83L11.5 81.5C23 80 46 77 68.8 76C91.7 75 114.3 76 137.2 76.3C160 76.7 183 76.3 205.8 71.7C228.7 67 251.3 58 274.2 53.3C297 48.7 320 48.3 342.8 56.7C365.7 65 388.3 82 411.2 93.2C434 104.3 457 109.7 480 106.8C503 104 526 93 548.8 83.7C571.7 74.3 594.3 66.7 617.2 65.7C640 64.7 663 70.3 685.8 79.7C708.7 89 731.3 102 754.2 105.2C777 108.3 800 101.7 822.8 98.8C845.7 96 868.3 97 891.2 94.5C914 92 937 86 948.5 83L960 80L960 201L948.5 201C937 201 914 201 891.2 201C868.3 201 845.7 201 822.8 201C800 201 777 201 754.2 201C731.3 201 708.7 201 685.8 201C663 201 640 201 617.2 201C594.3 201 571.7 201 548.8 201C526 201 503 201 480 201C457 201 434 201 411.2 201C388.3 201 365.7 201 342.8 201C320 201 297 201 274.2 201C251.3 201 228.7 201 205.8 201C183 201 160 201 137.2 201C114.3 201 91.7 201 68.8 201C46 201 23 201 11.5 201L0 201Z"/><path fill="#d65809" d="M0 125L11.5 124.8C23 124.7 46 124.3 68.8 121.2C91.7 118 114.3 112 137.2 109.3C160 106.7 183 107.3 205.8 105.8C228.7 104.3 251.3 100.7 274.2 96.5C297 92.3 320 87.7 342.8 84.7C365.7 81.7 388.3 80.3 411.2 85.2C434 90 457 101 480 104C503 107 526 102 548.8 98.2C571.7 94.3 594.3 91.7 617.2 85.3C640 79 663 69 685.8 65.2C708.7 61.3 731.3 63.7 754.2 66.7C777 69.7 800 73.3 822.8 83.7C845.7 94 868.3 111 891.2 114.2C914 117.3 937 106.7 948.5 101.3L960 96L960 201L948.5 201C937 201 914 201 891.2 201C868.3 201 845.7 201 822.8 201C800 201 777 201 754.2 201C731.3 201 708.7 201 685.8 201C663 201 640 201 617.2 201C594.3 201 571.7 201 548.8 201C526 201 503 201 480 201C457 201 434 201 411.2 201C388.3 201 365.7 201 342.8 201C320 201 297 201 274.2 201C251.3 201 228.7 201 205.8 201C183 201 160 201 137.2 201C114.3 201 91.7 201 68.8 201C46 201 23 201 11.5 201L0 201Z"/><path fill="#c64b08" d="M0 101L11.5 99.2C23 97.3 46 93.7 68.8 98.2C91.7 102.7 114.3 115.3 137.2 117.8C160 120.3 183 112.7 205.8 110.2C228.7 107.7 251.3 110.3 274.2 109.8C297 109.3 320 105.7 342.8 108.2C365.7 110.7 388.3 119.3 411.2 117.7C434 116 457 104 480 105.8C503 107.7 526 123.3 548.8 123.5C571.7 123.7 594.3 108.3 617.2 107.3C640 106.3 663 119.7 685.8 122.8C708.7 126 731.3 119 754.2 115.8C777 112.7 800 113.3 822.8 110C845.7 106.7 868.3 99.3 891.2 102.2C914 105 937 118 948.5 124.5L960 131L960 201L948.5 201C937 201 914 201 891.2 201C868.3 201 845.7 201 822.8 201C800 201 777 201 754.2 201C731.3 201 708.7 201 685.8 201C663 201 640 201 617.2 201C594.3 201 571.7 201 548.8 201C526 201 503 201 480 201C457 201 434 201 411.2 201C388.3 201 365.7 201 342.8 201C320 201 297 201 274.2 201C251.3 201 228.7 201 205.8 201C183 201 160 201 137.2 201C114.3 201 91.7 201 68.8 201C46 201 23 201 11.5 201L0 201Z"/><path fill="#b63d06" d="M0 143L11.5 144.2C23 145.3 46 147.7 68.8 147C91.7 146.3 114.3 142.7 137.2 134.8C160 127 183 115 205.8 110.8C228.7 106.7 251.3 110.3 274.2 114.5C297 118.7 320 123.3 342.8 126.2C365.7 129 388.3 130 411.2 132.3C434 134.7 457 138.3 480 138.2C503 138 526 134 548.8 127.3C571.7 120.7 594.3 111.3 617.2 107.2C640 103 663 104 685.8 105.3C708.7 106.7 731.3 108.3 754.2 114.5C777 120.7 800 131.3 822.8 131C845.7 130.7 868.3 119.3 891.2 120.2C914 121 937 134 948.5 140.5L960 147L960 201L948.5 201C937 201 914 201 891.2 201C868.3 201 845.7 201 822.8 201C800 201 777 201 754.2 201C731.3 201 708.7 201 685.8 201C663 201 640 201 617.2 201C594.3 201 571.7 201 548.8 201C526 201 503 201 480 201C457 201 434 201 411.2 201C388.3 201 365.7 201 342.8 201C320 201 297 201 274.2 201C251.3 201 228.7 201 205.8 201C183 201 160 201 137.2 201C114.3 201 91.7 201 68.8 201C46 201 23 201 11.5 201L0 201Z"/><path fill="#a63005" d="M0 163L11.5 158C23 153 46 143 68.8 137.5C91.7 132 114.3 131 137.2 131.8C160 132.7 183 135.3 205.8 138.3C228.7 141.3 251.3 144.7 274.2 142.3C297 140 320 132 342.8 133.2C365.7 134.3 388.3 144.7 411.2 149.3C434 154 457 153 480 148.2C503 143.3 526 134.7 548.8 131.8C571.7 129 594.3 132 617.2 136.8C640 141.7 663 148.3 685.8 147.5C708.7 146.7 731.3 138.3 754.2 136.2C777 134 800 138 822.8 142.8C845.7 147.7 868.3 153.3 891.2 156.3C914 159.3 937 159.7 948.5 159.8L960 160L960 201L948.5 201C937 201 914 201 891.2 201C868.3 201 845.7 201 822.8 201C800 201 777 201 754.2 201C731.3 201 708.7 201 685.8 201C663 201 640 201 617.2 201C594.3 201 571.7 201 548.8 201C526 201 503 201 480 201C457 201 434 201 411.2 201C388.3 201 365.7 201 342.8 201C320 201 297 201 274.2 201C251.3 201 228.7 201 205.8 201C183 201 160 201 137.2 201C114.3 201 91.7 201 68.8 201C46 201 23 201 11.5 201L0 201Z"/><path fill="#972303" d="M0 172L11.5 173C23 174 46 176 68.8 176.3C91.7 176.7 114.3 175.3 137.2 174.2C160 173 183 172 205.8 170C228.7 168 251.3 165 274.2 162C297 159 320 156 342.8 152.8C365.7 149.7 388.3 146.3 411.2 144.8C434 143.3 457 143.7 480 143.8C503 144 526 144 548.8 146.5C571.7 149 594.3 154 617.2 156.7C640 159.3 663 159.7 685.8 163C708.7 166.3 731.3 172.7 754.2 173.2C777 173.7 800 168.3 822.8 167.3C845.7 166.3 868.3 169.7 891.2 172C914 174.3 937 175.7 948.5 176.3L960 177L960 201L948.5 201C937 201 914 201 891.2 201C868.3 201 845.7 201 822.8 201C800 201 777 201 754.2 201C731.3 201 708.7 201 685.8 201C663 201 640 201 617.2 201C594.3 201 571.7 201 548.8 201C526 201 503 201 480 201C457 201 434 201 411.2 201C388.3 201 365.7 201 342.8 201C320 201 297 201 274.2 201C251.3 201 228.7 201 205.8 201C183 201 160 201 137.2 201C114.3 201 91.7 201 68.8 201C46 201 23 201 11.5 201L0 201Z"/><path fill="#871400" d="M0 184L11.5 182.7C23 181.3 46 178.7 68.8 178.7C91.7 178.7 114.3 181.3 137.2 179.7C160 178 183 172 205.8 170.8C228.7 169.7 251.3 173.3 274.2 173.2C297 173 320 169 342.8 168C365.7 167 388.3 169 411.2 169.8C434 170.7 457 170.3 480 170.3C503 170.3 526 170.7 548.8 171C571.7 171.3 594.3 171.7 617.2 173.7C640 175.7 663 179.3 685.8 180.3C708.7 181.3 731.3 179.7 754.2 178.7C777 177.7 800 177.3 822.8 178.7C845.7 180 868.3 183 891.2 180.3C914 177.7 937 169.3 948.5 165.2L960 161L960 201L948.5 201C937 201 914 201 891.2 201C868.3 201 845.7 201 822.8 201C800 201 777 201 754.2 201C731.3 201 708.7 201 685.8 201C663 201 640 201 617.2 201C594.3 201 571.7 201 548.8 201C526 201 503 201 480 201C457 201 434 201 411.2 201C388.3 201 365.7 201 342.8 201C320 201 297 201 274.2 201C251.3 201 228.7 201 205.8 201C183 201 160 201 137.2 201C114.3 201 91.7 201 68.8 201C46 201 23 201 11.5 201L0 201Z"/></svg>